<svg xmlns="http://www.w3.org/2000/svg" viewBox="0 0 100 100"><path d="M68.4 39.4c.2-1 .3-1.9.3-2.9 0-9.6-8-17.5-17.7-17.5H37.2c-9.8 0-17.7 7.9-17.7 17.5 0 5 2.1 9.7 5.9 13v11l6-3.3c.6 9.1 8.3 16.3 17.6 16.3h13.9L74.6 80V69c3.8-3.3 5.9-8.1 5.9-13 0-7.7-5.1-14.3-12.1-16.6zM31.4 55l-4 2.3v-8.6l-.4-.3c-3.5-3-5.6-7.3-5.6-11.9 0-8.6 7.1-15.6 15.7-15.6H51c8.7 0 15.7 7 15.7 15.6 0 .8-.1 1.6-.2 2.3-1.2-.3-2.5-.4-3.7-.4H28.4v1.9H41c-5.5 2.9-9.3 8.3-9.6 14.7zM73 67.8l-.3.3v8.6l-9.3-5.2H49c-8.7 0-15.7-7-15.7-15.6S40.4 40.3 49 40.3h13.8c8.7 0 15.7 7 15.7 15.6 0 4.6-2 8.9-5.5 11.9zm-13.6-9.9c2.6-1.4 4.3-4.1 4.3-7.2 0-4.6-3.8-8.3-8.4-8.3-4.6 0-8.4 3.7-8.4 8.3 0 3.1 1.8 5.8 4.3 7.2-3.1 1.5-5.3 4.7-5.3 8.3v3.4h18.7v-3.4c.2-3.7-2-6.9-5.2-8.3zM49 50.6c0-3.5 2.9-6.3 6.4-6.3 3.5 0 6.4 2.8 6.4 6.3s-2.9 6.3-6.4 6.3c-3.5 0-6.4-2.8-6.4-6.3zm13.8 17H48v-1.5c0-4 3.3-7.3 7.4-7.3 4.1 0 7.4 3.3 7.4 7.3v1.5zM53 49.2c.5 0 1-.4 1-1 0-.5-.4-1-1-1-.5 0-1 .4-1 1 0 .5.4 1 1 1zm4.9 0c.5 0 1-.4 1-1 0-.5-.4-1-1-1-.5 0-1 .4-1 1 0 .5.4 1 1 1zm2.2 3.5l-1.6-1.2c-.8 1-1.9 1.6-3.1 1.6-1.2 0-2.4-.6-3.1-1.6l-1.6 1.2c1.1 1.5 2.8 2.3 4.7 2.3 1.9 0 3.6-.9 4.7-2.3zm-.3-25.9H28.4v1.9h31.5v-1.9zm0 5.8H28.4v1.9h31.5v-1.9z" fill-rule="evenodd" clip-rule="evenodd" fill="#2962ff"/><path d="M50 3c25.7 0 46.5 20.8 46.5 46.5S75.7 96 50 96 3.5 75.2 3.5 49.5 24.3 3 50 3z" clip-rule="evenodd" fill="none" stroke="#2962ff" stroke-width="2" stroke-miterlimit="10"/></svg>