<svg xmlns="http://www.w3.org/2000/svg" viewBox="0 0 90 90"><path d="M62 26H28c-2.5 0-4.5 2-4.5 4.5V55c0 2.5 2 4.5 4.5 4.5h12.2L38.9 64H36v2h18v-1.8h-2.9l-1.3-4.5H62c2.5 0 4.5-2 4.5-4.5V30.5c0-2.5-2-4.5-4.5-4.5zM40.8 64.2l1.3-4.5h5.8l1.3 4.5h-8.4zm23.9-9.1c0 1.5-1.2 2.7-2.7 2.7H28c-1.5 0-2.7-1.2-2.7-2.7v-1.8h39.4v1.8zm0-3.6H25.3v-21c0-1.5 1.2-2.7 2.7-2.7h34c1.5 0 2.7 1.2 2.7 2.7v21zm-22.4-4.8l1.7.5 3.6-12.7-1.7-.5-3.6 12.7zm-3.2-11.4l-5.4 4.5c-.4.3-.4.9-.1 1.3l.1.1 5.4 4.5 1.1-1.4-4.5-3.8 4.5-3.8-1.1-1.4zm17.2 4.5l-5.4-4.5-1.1 1.4 4.5 3.8-4.5 3.8 1.1 1.4 5.4-4.5c.4-.3.4-.9.1-1.3l-.1-.1z" fill-rule="evenodd" clip-rule="evenodd" fill="#01838f"/><path d="M45.5 3c23.2 0 42 18.8 42 42s-18.8 42-42 42-42-18.8-42-42 18.8-42 42-42z" clip-rule="evenodd" fill="none" stroke="#01838f" stroke-width="2" stroke-miterlimit="10"/></svg>