<svg xmlns="http://www.w3.org/2000/svg" viewBox="0 0 44 32"><path d="M14.9 14.5V16c0 .3.2.6.5.7h.2c.2 0 .4-.1.6-.3l1.6-1.9h3v3.6c-.1 1.2.8 2.2 2 2.3h.8l1.5 1.8c.3.3.7.3 1 .1.2-.1.3-.3.3-.6v-1.3h3.8c1.2.1 2.2-.8 2.3-2v-3.9c.1-1.2-.8-2.2-2-2.3H26V7.9c.1-1.3-.9-2.4-2.2-2.5H15.6c-1.3-.1-2.4.9-2.5 2.2V12c-.1 1.2.7 2.3 1.8 2.5zm15.3-.9c.9 0 .9.6.9.9v3.6c0 .9-.6.9-.9.9h-4.5c-.4 0-.7.3-.7.7v.1l-.4-.5c-.2-.2-.4-.3-.6-.3h-.8c-.9 0-.9-.6-.9-.9v-3.6c0-.1 0-.3.1-.4.1-.2.3-.5.8-.5h7zM15.3 6.9H23.5c.5-.1 1 .3 1.1.8v4.5h-1.4c-.8 0-1.5.3-1.9.9h-3.7c-.2 0-.4.1-.5.3l-.6.7v-.2c0-.4-.4-.7-.8-.7-.5.1-1-.3-1.1-.8V8c-.2-.6.2-1.1.7-1.1zm27.1 18.7h-1.9V3.1C40.7 1.6 39.6.2 38 0H6.4c-1.5-.2-2.9 1-3 2.5v23.1H1.6c-.9 0-1.6.7-1.6 1.6v1.7c-.1 1.6 1 2.9 2.5 3.1H41c1.5.2 2.9-.9 3.1-2.5v-2.3c-.1-.9-.8-1.6-1.7-1.6zM4.9 3.1c0-1.1.5-1.6 1.6-1.6h31.1c1.1 0 1.6.5 1.6 1.6v22.4c0 .1-.1.1-.1.1H5c-.1 0-.1-.1-.1-.1V3.1zm37.6 25.8c0 1.1-.5 1.6-1.6 1.6H3.1c-1.1 0-1.6-.5-1.6-1.6v-1.7c0-.1.1-.1.1-.1h40.8c.1 0 .1.1.1.1v1.7z" fill="#f04d2a"/></svg>