<svg version="1.1" id="Layer_1" xmlns="http://www.w3.org/2000/svg" x="0" y="0" viewBox="0 0 42 42" xml:space="preserve"><style>.st1{fill:#2962ff}</style><circle cx="21" cy="21" r="21" fill-rule="evenodd" clip-rule="evenodd" fill="#fff"/><path class="st1" d="M18.4 31.3h4c.3 0 .6-.3.6-.6v-9.1h2.1c.3 0 .6-.2.6-.6l.4-3.4c0-.2 0-.4-.2-.5-.1-.1-.2-.1-.4-.1h-2.4v-1.4c0-.3.1-.3.2-.3h2.2c.3 0 .6-.3.6-.6v-3.3c0-.3-.3-.6-.6-.6h-3c-2.1 0-3.2.9-3.8 1.7-.8 1.1-.9 2.3-.9 3V17h-1.3c-.3 0-.6.3-.6.6V21c0 .3.3.6.6.6h1.3v9.1c0 .3.3.6.6.6zm-1.3-10.9v-2.2h1.3c.3 0 .6-.3.6-.6v-2.2c0-.4.1-1.4.7-2.3.6-.8 1.5-1.2 2.8-1.2h2.4V14h-1.5c-.7 0-1.5.5-1.5 1.6v2c0 .3.3.6.6.6h2.4l-.2 2.2h-2.2c-.3 0-.6.3-.6.6v9.1H19V21c0-.3-.3-.6-.6-.6h-1.3z"/><path class="st1" d="M35.1 6.9C31.4 3.1 26.3 1 21 1 15.7 1 10.6 3.1 6.9 6.9 3.1 10.6 1 15.7 1 21c0 5.3 2.1 10.4 5.9 14.1C10.6 38.9 15.7 41 21 41c5.3 0 10.4-2.1 14.1-5.9C38.9 31.4 41 26.3 41 21c0-5.3-2.1-10.4-5.9-14.1zm-.8 27.4c-3.5 3.5-8.2 5.5-13.3 5.5-5 0-9.7-2-13.3-5.5C4.2 30.7 2.3 26 2.3 21s2-9.7 5.5-13.3C11.3 4.2 16 2.2 21 2.2s9.7 1.9 13.3 5.5c3.5 3.5 5.5 8.3 5.5 13.3s-2 9.7-5.5 13.3z"/><path class="st1" d="M34.6 10c-.2-.3-.6-.3-.9-.1-.3.2-.3.6-.1.9 2.3 2.9 3.6 6.5 3.6 10.2 0 4.3-1.7 8.4-4.8 11.5-3.1 3.1-7.1 4.8-11.5 4.8-4 0-7.9-1.5-10.8-4.1-.3-.2-.7-.2-.9 0-.2.3-.2.7 0 .9 3.2 2.9 7.4 4.5 11.7 4.5 4.7 0 9.1-1.8 12.4-5.1 3.3-3.3 5.1-7.7 5.1-12.4.1-4.1-1.3-8-3.8-11.1zM4.8 21C4.8 12 12 4.7 21 4.7c4 0 7.9 1.5 10.8 4.1.3.2.7.2.9 0 .2-.3.2-.7 0-.9-3.2-2.8-7.4-4.4-11.7-4.4-4.7 0-9.1 1.8-12.4 5.1-3.3 3.3-5.1 7.7-5.1 12.4 0 4 1.4 7.9 3.9 11 .1.2.3.2.5.2.1 0 .3 0 .4-.1.3-.2.3-.6.1-.9C6 28.3 4.8 24.7 4.8 21z"/></svg>