<svg version="1.1" id="Layer_1" xmlns="http://www.w3.org/2000/svg" x="0" y="0" viewBox="0 0 42 42" xml:space="preserve"><style>.st1{fill:#2962ff}</style><circle cx="21" cy="21" r="21" fill-rule="evenodd" clip-rule="evenodd" fill="#fff"/><path class="st1" d="M35.1 6.9C31.4 3.1 26.3 1 21 1 15.7 1 10.6 3.1 6.9 6.9 3.1 10.6 1 15.7 1 21c0 5.3 2.1 10.4 5.9 14.1C10.6 38.9 15.7 41 21 41c5.3 0 10.4-2.1 14.1-5.9C38.9 31.4 41 26.3 41 21c0-5.3-2.1-10.4-5.9-14.1zm-.8 27.4c-3.5 3.5-8.2 5.5-13.3 5.5-5 0-9.7-2-13.3-5.5C4.2 30.7 2.3 26 2.3 21s2-9.7 5.5-13.3C11.3 4.2 16 2.2 21 2.2s9.7 1.9 13.3 5.5c3.5 3.5 5.5 8.2 5.5 13.3 0 5-2 9.7-5.5 13.3z"/><path class="st1" d="M34.6 10c-.2-.3-.6-.3-.9-.1-.3.2-.3.6-.1.9 2.3 2.9 3.6 6.5 3.6 10.2 0 4.3-1.7 8.4-4.8 11.5-3.1 3.1-7.1 4.8-11.5 4.8-4 0-7.9-1.5-10.8-4.1-.3-.2-.7-.2-.9 0-.2.3-.2.7 0 .9 3.2 2.9 7.4 4.5 11.7 4.5 4.7 0 9.1-1.8 12.4-5.1 3.3-3.3 5.1-7.7 5.1-12.4.1-4.1-1.3-8-3.8-11.1zM4.8 21C4.8 12 12 4.7 21 4.7c4 0 7.9 1.5 10.8 4.1.3.2.7.2.9 0 .2-.3.2-.7 0-.9-3.2-2.8-7.4-4.4-11.7-4.4-4.7 0-9.1 1.8-12.4 5.1-3.3 3.3-5.1 7.7-5.1 12.4 0 4 1.4 7.9 3.9 11 .1.2.3.2.5.2.1 0 .3 0 .4-.1.3-.2.3-.6.1-.9C6 28.3 4.8 24.7 4.8 21z"/><path class="st1" d="M15.9 24.6c-.8.6-1.2 1.3-1.2 2.2 0 .8.4 1.6 1.2 2.2.7.5 1.7.8 2.7.8 1 0 1.9-.3 2.7-.8.8-.6 1.2-1.3 1.2-2.2 0-.8-.4-1.6-1.2-2.2-.7-.5-1.7-.8-2.7-.8-1.1 0-2 .2-2.7.8zm5.2 2.1c0 .9-1.2 1.7-2.6 1.7-1.4 0-2.6-.8-2.6-1.7 0-.9 1.2-1.7 2.6-1.7 1.4 0 2.6.8 2.6 1.7z"/><path class="st1" d="M26 11.9c-.1-.2-.3-.4-.6-.4h-6.6c-1.5 0-3.1.6-4.2 1.6-1.2 1-1.9 2.4-1.9 3.8 0 2.7 1.7 4.7 4.2 5.1v.1c-1.4.2-2.7.8-3.7 1.6-1.1 1-1.7 2.3-1.7 3.6 0 2.6 2.9 4.4 6.8 4.4 3.3 0 6.8-1.9 6.8-5.2 0-2.1-.6-3.2-2.5-4.6l-.1-.1c-.5-.4-.8-.6-.9-.7l.5-.5c1.3-1 2-2.3 2-3.7 0-.8-.2-1.6-.5-2.3l2.1-2c.3-.2.3-.4.3-.7zm-3.5 2.2c-.2.2-.3.5-.1.8.4.6.6 1.3.6 2.1 0 1-.5 2-1.5 2.8-.9.7-1.1 1-1.1 1.6v.2c.1.3.4.6 1.4 1.4l.1.1c1.6 1.2 2 1.9 2 3.6 0 1.4-.9 2.3-1.7 2.8-1 .7-2.5 1.1-3.9 1.1-1.6 0-3.1-.3-4.1-1-.7-.4-1.5-1.1-1.5-2.2 0-2.3 2.6-4 4.9-4.1.2 0 .4-.1.5-.3.1-.2.1-.4 0-.6-.1-.2-.1-.3-.1-.5v-.3c0-.2 0-.4-.1-.5-.1-.1-.3-.2-.5-.2-2.2-.1-3.6-1.7-3.6-3.9 0-1 .5-2 1.4-2.8.9-.8 2.2-1.3 3.4-1.3h5l-1.1 1.2z"/><path class="st1" d="M16.9 13.8c-.6.3-1.1 1-1.2 1.8-.1.8 0 1.6.4 2.4.7 1.3 1.8 2.1 2.9 2.1.3 0 .6-.1.9-.2 1.3-.6 1.6-2.5.7-4.1-.4-.8-1-1.4-1.6-1.7-.7-.6-1.5-.6-2.1-.3zm1.5 1.2c.4.2.8.7 1.1 1.2.5 1 .4 2.2-.2 2.5-.6.3-1.6-.3-2.1-1.3-.3-.5-.4-1.1-.3-1.6 0-.2.1-.7.5-.9.1-.1.2-.1.4-.1.3 0 .5.1.6.2zM29.1 20.3c.3 0 .6-.3.6-.6v-2.5h2.5c.3 0 .6-.3.6-.6s-.3-.6-.6-.6h-2.5v-2.5c0-.3-.3-.6-.6-.6s-.6.3-.6.6V16H26c-.3 0-.6.3-.6.6s.3.6.6.6h2.5v2.5c0 .3.3.6.6.6z"/></svg>