<svg version="1.1" id="Layer_1" xmlns="http://www.w3.org/2000/svg" x="0" y="0" viewBox="0 0 120 120" xml:space="preserve"><style>.st1{fill:#52b848}</style><circle cx="60" cy="60" r="58" fill="none" stroke="#52b848" stroke-width="2" stroke-miterlimit="10"/><path class="st1" d="M87.4 63.6l8.8-8.8 1.8 1.8-8.8 8.8-1.8-1.8z"/><path class="st1" d="M89.8 69.3L77.2 56.7c.9-.6 1.7-1.3 2.5-2l4.4-4.4-1.8-1.8-4.4 4.4c-5.4 5.4-14.2 5.4-19.7 0L56.3 51c-.5-.5-1.2-.5-1.7-.1l-3.4 3c-3.6 3.2-9 3.4-12.9.5l17-15.9c1.2-1.1 2.7-1.7 4.3-1.7h14.9c1 0 2-.4 2.7-1.1l6.8-6.8-1.7-1.9-6.8 6.8c-.2.2-.6.4-.9.4H59.7c-2.2 0-4.4.9-6 2.4l-18 16.9c-.5.5-.5 1.3-.1 1.8 4.7 4.7 12.3 4.9 17.3.5l2.5-2.2 1.1 1.1c4.9 4.9 12.2 6.2 18.5 3.3l13 13.1c1.2 1.3 1.2 3.3-.1 4.5-1.2 1.2-3.2 1.2-4.5 0l-3.2-3.2-1.8 1.8 3.2 3.2c1.2 1.3 1.2 3.3 0 4.5-1.3 1.2-3.3 1.2-4.5 0L74 78.8l-1.8 1.8 3.2 3.2c1.2 1.3 1.2 3.3 0 4.5-1.3 1.2-3.3 1.2-4.5 0l-3.2-3.2-1.8 1.8 3.2 3.2c1.2 1.3 1.2 3.3 0 4.5-1.3 1.2-3.3 1.2-4.5 0l-2.3-2.3c2.1-2.3 1.9-5.9-.5-8-1.2-1.1-2.9-1.6-4.5-1.4.4-3.1-1.8-5.9-4.9-6.3-.5-.1-.9-.1-1.4 0 .4-3.1-1.8-5.9-4.9-6.3-.5-.1-.9-.1-1.4 0 .4-3.1-1.8-5.9-4.9-6.3-1.6-.2-3.3.3-4.5 1.4L24.8 54.8 23 56.6 33.5 67l-2.3 2.3c-2.2 2.2-2.2 5.9 0 8.1 1.1 1.1 2.5 1.7 4.1 1.7.2 0 .4 0 .7-.1-.4 3.1 1.8 5.9 4.9 6.3h.7c.2 0 .4 0 .7-.1-.4 3.1 1.8 5.9 4.9 6.3h.7c.2 0 .4 0 .7-.1-.4 3.1 1.9 6 5 6.3 1.7.2 3.5-.4 4.7-1.6l2.3-2.3 2.3 2.3c2.2 2.2 5.9 2.2 8.1 0 1.2-1.2 1.8-2.9 1.6-4.7 3.1.3 6-1.9 6.3-5.1V85c3.1.3 6-1.9 6.3-5.1v-1.3c3.1.3 6-1.9 6.3-5.1.1-1.3-.5-3-1.7-4.2zm-52.3 6.3c-1.3 1.2-3.3 1.2-4.5 0-1.2-1.3-1.2-3.3 0-4.5l3.8-3.8c1.3-1.2 3.3-1.2 4.5.1 1.2 1.2 1.2 3.2 0 4.5l-3.8 3.7zm6.3 6.3c-1.3 1.2-3.3 1.2-4.5 0-1.2-1.3-1.2-3.3 0-4.5l3.8-3.8c1.3-1.2 3.3-1.2 4.5.1 1.2 1.2 1.2 3.2 0 4.5l-3.8 3.7zm1.8 6.3c-1.2-1.3-1.2-3.3 0-4.5l3.8-3.8c1.3-1.2 3.3-1.2 4.5.1 1.2 1.2 1.2 3.2 0 4.5l-3.8 3.8c-1.2 1.2-3.2 1.2-4.5-.1zm14.6 2.5l-3.8 3.8c-1.3 1.2-3.3 1.2-4.5-.1-1.2-1.2-1.2-3.2 0-4.5l3.8-3.8c1.3-1.1 3.3-1.1 4.5.2 1.2 1.2 1.2 3.2 0 4.4zM46.4 34.2c-.3 0-.7-.1-.9-.4L38.7 27l-1.8 1.8 6.8 6.8c.7.7 1.7 1.1 2.7 1.1h4v-2.5h-4z"/></svg>