<svg xmlns="http://www.w3.org/2000/svg" viewBox="0 0 108 108"><path d="M78.5 36.5c0-4.1-3.3-7.5-7.3-7.5-2 0-3.9.9-5.2 2.3-1.4-1.5-3.3-2.3-5.2-2.3-4 0-7.3 3.4-7.3 7.5 0 2.6 1.3 4.9 3.4 6.3L58 44 43.9 58.6l-2.7-2.7c-.3-.3-.8-.3-1.1 0l-3.2 3.3c-.3.3-.3.9 0 1.2l2.7 2.7-1.3 1.3-2.7-2.7c-.3-.3-.8-.3-1.1 0l-3.3 3.4c-.3.3-.3.9 0 1.2l2.7 2.7-3 3.1c-.3.3-.3.9 0 1.2l5.2 5.4c.2.2.4.2.6.2.2 0 .4-.1.6-.2l5.1-5.3 2.7 2.7c.3.3.8.3 1.1 0l4-4.2c.3-.3.3-.9 0-1.2L47.5 68l17-17.5.7.8c1.3 2.2 3.6 3.5 6.1 3.5 4 0 7.3-3.4 7.3-7.5 0-2-.8-4-2.2-5.4 1.3-1.4 2.1-3.4 2.1-5.4zm-1.6 10.8c0 3.2-2.5 5.8-5.6 5.8-2 0-3.8-1-4.8-2.8 0-.1-.1-.1-.1-.2L65 48.8c-.3-.3-.8-.3-1.1 0L45.7 67.5c-.3.3-.3.9 0 1.2l2.7 2.7-2.9 3-2.7-2.7c-.3-.3-.8-.3-1.1 0L36.5 77l-4.1-4.2 3-3.1c.3-.3.3-.9 0-1.2l-2.7-2.7 2.2-2.3 2.7 2.7c.3.3.8.3 1.1 0l2.4-2.5c.3-.3.3-.9 0-1.2l-2.7-2.7 2.1-2.2 2.7 2.7c.3.3.8.3 1.1 0l15.3-15.8c.3-.3.3-.9 0-1.2L58 41.6l-.1-.1c-1.7-1.1-2.7-2.9-2.7-4.9 0-3.2 2.5-5.8 5.6-5.8 1.8 0 3.5.9 4.6 2.4.3.4 1 .4 1.3 0 1.1-1.5 2.8-2.4 4.6-2.4 3.1 0 5.6 2.6 5.6 5.8 0 1.9-.9 3.6-2.4 4.7-.2.2-.3.4-.3.7 0 .3.1.5.3.7 1.5 1 2.4 2.7 2.4 4.6zM49.7 59.2l1.1 1.2L63 47.9l-1.1-1.2-12.2 12.5zm-3.2 3.3l1.1 1.2 1.6-1.7-1.1-1.2-1.6 1.7zm24.7-29.3c-1.8 0-3.2 1.5-3.2 3.3 0 1.8 1.4 3.3 3.2 3.3 1.8 0 3.2-1.5 3.2-3.3.1-1.8-1.4-3.3-3.2-3.3zm0 5c-.9 0-1.6-.7-1.6-1.7 0-.9.7-1.7 1.6-1.7.9 0 1.6.7 1.6 1.7.1.9-.7 1.7-1.6 1.7zM61 39.6l1.6 1.7 1.1-1.2-1.6-1.7-1.1 1.2zm3.2 3.3l1.6 1.7 1.1-1.2-1.6-1.7-1.1 1.2zm3.3 3.3l1.6 1.7 1.1-1.2-1.6-1.7-1.1 1.2zm10.2 18.6h-1.4c0-.1-.1-.2-.1-.3l1-1c.3-.3.3-.9 0-1.2l-3.4-3.5c-.3-.3-.8-.3-1.1 0l-1 1c-.1-.1-.2-.1-.3-.1v-1.5c0-.5-.4-.8-.8-.8h-4.8c-.4 0-.8.4-.8.8v1.5c-.1 0-.2.1-.3.1l-1-1c-.3-.3-.8-.3-1.1 0l-3.4 3.5c-.3.3-.3.9 0 1.2l1 1c0 .1-.1.2-.1.3h-1.4c-.4 0-.8.4-.8.8v5c0 .5.4.8.8.8h1.4c0 .1.1.2.1.3l-1 1c-.3.3-.3.9 0 1.2l3.4 3.5c.3.3.8.3 1.1 0l1-1c.1.1.2.1.3.1V78c0 .5.4.8.8.8h4.8c.4 0 .8-.4.8-.8v-1.5c.1 0 .2-.1.3-.1l1 1c.3.3.8.3 1.1 0l3.4-3.5c.3-.3.3-.9 0-1.2l-1-1c.1-.1.1-.2.1-.3h1.4c.4 0 .8-.4.8-.8v-5c0-.4-.4-.8-.8-.8zm-.8 5h-1.2c-.4 0-.7.2-.8.6-.1.4-.3.8-.5 1.2-.2.3-.1.7.1 1l.8.9-2.3 2.4-.8-.9c-.2-.3-.6-.3-.9-.1-.4.2-.8.4-1.2.5-.3.1-.6.4-.6.8v1.2h-3.2v-1.2c0-.4-.2-.7-.6-.8-.4-.1-.8-.3-1.2-.5-.3-.2-.7-.1-.9.1l-.8.9-2.3-2.4.8-.9c.2-.3.3-.7.1-1-.2-.4-.4-.8-.5-1.2-.1-.3-.4-.6-.8-.6h-1.2v-3.3h1.2c.4 0 .7-.2.8-.6.1-.4.3-.8.5-1.2.2-.3.1-.7-.1-1l-.8-.9 2.3-2.4.8.9c.2.3.6.3.9.2.4-.2.8-.4 1.2-.5.3-.1.6-.4.6-.8V59h3.2v1.2c0 .4.2.7.6.8.4.1.8.3 1.2.5.3.2.7.1.9-.1l.8-.9 2.3 2.4-.8.9c-.2.3-.3.7-.1 1 .2.4.4.8.5 1.2.1.3.4.6.8.6h1.2v3.2zM68 63.1c-2.7 0-4.8 2.2-4.8 5s2.2 5 4.8 5c2.7 0 4.8-2.2 4.8-5 .1-2.7-2.1-5-4.8-5zm0 8.3c-1.8 0-3.2-1.5-3.2-3.3 0-1.8 1.4-3.3 3.2-3.3 1.8 0 3.2 1.5 3.2 3.3 0 1.8-1.4 3.3-3.2 3.3zM34.2 53.1h1.6c0-1.4 1.1-2.5 2.4-2.5V49c-1.3 0-2.4-1.1-2.4-2.5h-1.6c0 1.4-1.1 2.5-2.4 2.5v1.7c1.3-.1 2.4 1.1 2.4 2.4zm.8-4.2c.2.3.5.6.8.9-.3.2-.6.5-.8.9-.2-.3-.5-.6-.8-.9.3-.2.6-.5.8-.9zm8.9-.8h1.6c0-1.4 1.1-2.5 2.4-2.5V44c-1.3 0-2.4-1.1-2.4-2.5h-1.6c0 1.4-1.1 2.5-2.4 2.5v1.7c1.3-.1 2.4 1.1 2.4 2.4zm.8-4.1c.2.3.5.6.8.9-.3.2-.6.5-.8.9-.2-.3-.5-.6-.8-.9.3-.3.5-.6.8-.9zm-8.9-3.4h1.6c0-1.4 1.1-2.5 2.4-2.5v-1.7c-1.3 0-2.4-1.1-2.4-2.5h-1.6c0 1.4-1.1 2.5-2.4 2.5v1.7c1.3.1 2.4 1.2 2.4 2.5zm.8-4.1c.2.3.5.6.8.9-.3.2-.6.5-.8.9-.2-.3-.5-.6-.8-.9.3-.3.6-.6.8-.9z" fill-rule="evenodd" clip-rule="evenodd" fill="#2962ff"/><path d="M54.5 7c26 0 47 21 47 47s-21 47-47 47-47-21-47-47 21-47 47-47z" clip-rule="evenodd" fill="none" stroke="#2962ff" stroke-width="2" stroke-miterlimit="10"/></svg>