<svg xmlns="http://www.w3.org/2000/svg" viewBox="0 0 80 80"><path d="M36.8 43.3c-2.2 0-4 1.8-4 4 0 1.6.9 3.1 2.4 3.7l.5-1.2c-1.4-.6-2-2.2-1.4-3.5.4-1 1.4-1.6 2.4-1.6.4 0 .7.1 1.1.2.3.1.7 0 .9-.3 0-.1.1-.2.1-.3v-4.9h3.4c0 .2-.1.4-.1.7 0 1.9 1.3 3.6 3.2 4l.3-1.3c-1.2-.3-2.1-1.4-2.1-2.6 0-.4.1-.7.2-1.1.1-.3 0-.7-.3-.9-.1 0-.2-.1-.3-.1h-4.3v-3.4c.2 0 .4.1.7.1 2.2 0 4-1.8 4-4s-1.8-4-4-4c-.2 0-.4 0-.7.1v-3.4h11.3c1.8 0 3.3 1.5 3.3 3.4v11.4h-4.3c-.4 0-.7.3-.7.7 0 .1 0 .2.1.3.1.3.2.7.2 1.1H50c0-.2 0-.5-.1-.7H54c.4 0 .7-.3.7-.7V26.5c0-2.6-2.1-4.7-4.7-4.7H26c-2.6 0-4.7 2.1-4.7 4.7v24.2c0 2.6 2.1 4.7 4.7 4.7h7.3V54H26c-1.8 0-3.3-1.5-3.3-3.4V39.3H27c.4 0 .7-.4.7-.8 0-.1 0-.2-.1-.2-.6-1.4 0-2.9 1.4-3.5 1.3-.6 2.9 0 3.5 1.4.3.7.3 1.5 0 2.2-.2.3 0 .8.3.9.1 0 .2.1.3.1h4.3v4c-.1-.1-.3-.1-.6-.1zm-2.7-5.4c0-.2.1-.4.1-.6v-.1c0-2.2-1.8-4-4-4s-4 1.8-4 4v.1c0 .2 0 .4.1.6h-3.4V26.5c0-1.9 1.5-3.4 3.3-3.4h11.3v4.3c0 .4.3.7.7.7.1 0 .2 0 .3-.1.3-.2.7-.2 1.1-.2 1.5 0 2.7 1.2 2.7 2.7 0 1.5-1.2 2.7-2.7 2.7-.4 0-.7-.1-1.1-.2-.3-.1-.7 0-.9.3 0 .1-.1.2-.1.3v4.3h-3.4zm26 12.8l-5.6-3.9-2.2-5.8c-.1-.3-.5-.5-.9-.4l-4.3 1.9c-.3.1-.5.5-.4.9.1.2.1.3.2.5.1.1.1.3.2.5.5 1.4-.2 3-1.6 3.5-1.4.5-2.9-.2-3.4-1.6-.1-.3-.1-.7-.1-1.1 0-.4-.3-.7-.6-.7h-.3l-4.6 1.8c-.3.1-.5.5-.4.9l1.7 4.5c-.2 0-.4.1-.6.2-2.2.7-3.2 3.1-2.5 5.2.8 2.1 3.1 3.2 5.2 2.4l.6-.3 1.2 3.2c.1.3.5.5.9.4l6.6-2.5c.4.9 1.2 1.6 2.1 1.9l.4-1.3c-.5-.2-1-.6-1.3-1.1l2-.8c.7 1.9 2.4 3.1 4.4 3.1v-1.3c-1.8 0-3.3-1.5-3.3-3.4 0-.2-.1-.3-.2-.5L51 54.6c-.3-.4-.4-.9-.1-1.3.2-.2.4-.4.7-.4.3 0 .6.1.8.3l4.7 4.7.9-1-1.4-1.4c.3-1 .3-2.1-.1-3.1L55.3 49l4 2.8c.5.4.9 1 .9 1.7v8.7h1.3v-8.7c0-1.1-.5-2.2-1.4-2.8zm-4.8 2.2c.2.5.3 1 .2 1.6l-2.2-2.2c-.9-.9-2.4-.9-3.3 0-.9.9-.9 2.4 0 3.3l2.1 2.1-9.4 3.6-1.3-3.4c-.1-.2-.3-.4-.5-.4h-.1c-.2 0-.3.1-.5.2-1.1 1-2.8 1-3.8-.1s-1-2.8.1-3.8c.3-.2.5-.4.9-.6.3-.2.5-.2.7-.2h.4c.4 0 .7-.3.7-.6v-.3l-1.7-4.7 3.2-1.2c.4 2.2 2.5 3.6 4.7 3.2.2 0 .4-.1.7-.2 2.1-.8 3.1-3.1 2.3-5.2-.1-.2-.1-.3-.2-.4l3.1-1.4 3.9 10.7z" fill-rule="evenodd" clip-rule="evenodd" fill="#fbb722"/><path d="M30.4 5.2c19.2-5.1 38.9 6.4 44 25.6 5.1 19.2-6.4 38.9-25.7 44-19.2 5.1-38.9-6.4-44-25.6-5.1-19.3 6.4-39 25.7-44z" clip-rule="evenodd" fill="none" stroke="#fbb722" stroke-miterlimit="10"/></svg>