<svg xmlns="http://www.w3.org/2000/svg" viewBox="0 0 120 120"><path d="M89.7 62.3c.7-1 1.2-2.2 1.2-3.5v-2.3c0-3.2-2.6-5.8-5.8-5.8-3.2 0-5.8 2.6-5.8 5.8v2.3c0 1.3.4 2.5 1.2 3.5-1.9 0-3.7 1-4.8 2.7l-3.2 5.6-2.5-5.2s0-.1-.1-.1c-1-1.7-2.8-2.8-4.8-2.9.8-1 1.2-2.2 1.2-3.5v-2.3c0-3.2-2.6-5.8-5.8-5.8-3.2 0-5.8 2.6-5.8 5.8v2.3c0 1.3.4 2.5 1.2 3.5-1.9 0-3.7 1-4.7 2.6 0 .1-.1.1-.1.2l-2.5 5.5-3.2-5.6c-1.1-1.6-2.8-2.6-4.7-2.6.8-1 1.2-2.2 1.2-3.5v-2.3c0-3.2-2.6-5.8-5.8-5.8-3.2 0-5.8 2.6-5.8 5.8V59c0 1.3.4 2.5 1.2 3.5-3.2 0-5.8 2.6-5.8 5.8v9.3c0 .6.5 1.2 1.2 1.2h3.5V94c0 .6.5 1.2 1.2 1.2h9.3c.6 0 1.2-.5 1.2-1.2V72.2l3.7 5.9c.2.3.6.5 1 .5h4.7c.4 0 .8-.2 1-.6l2.5-4.9v20.7c0 .6.5 1.2 1.2 1.2h9.3c.6 0 1.2-.5 1.2-1.2V73.1l2.4 4.9.1.1.1.1.1.1c.1.1.2.1.3.2H74.8c.4 0 .8-.2 1-.5l3.7-5.9v21.6c0 .6.5 1.2 1.2 1.2H90c.6 0 1.2-.5 1.2-1.2v-15h3.5c.6 0 1.2-.5 1.2-1.2v-9.3c-.4-3.3-3-5.9-6.2-5.9zm-8.2-5.8c0-1.9 1.6-3.5 3.5-3.5s3.5 1.6 3.5 3.5v2.3c0 1.9-1.6 3.5-3.5 3.5s-3.5-1.6-3.5-3.5v-2.3zm-24.5 0c0-1.9 1.6-3.5 3.5-3.5s3.5 1.6 3.5 3.5v2.3c0 1.9-1.6 3.5-3.5 3.5S57 60.8 57 58.8v-2.3zm-24.5 0c0-1.9 1.6-3.5 3.5-3.5s3.5 1.6 3.5 3.5v2.3c0 1.9-1.6 3.5-3.5 3.5s-3.5-1.6-3.5-3.5v-2.3zm7 36.2h-2.3V81h-2.3v11.7h-2.3v-14h7v14zm7.6-16.4l-5.5-8.8c-.3-.5-1.1-.7-1.6-.4-.3.2-.5.6-.5 1v8.2h-7v-8.2h-2.3v8.2h-2.3v-8.2c0-1.9 1.6-3.5 3.5-3.5h3.5V74h2.3v-9.3H40.8c1.1.1 2 .6 2.6 1.5l5.8 10.2h-2.1zM64 92.7h-2.3V81h-2.3v11.7H57v-14h7v14zm5.8-17.8l-3.6-7.2c-.3-.6-1-.8-1.6-.5-.4.2-.7.6-.7 1.1v8.2h-7v-8.2c0-.6-.5-1.2-1.2-1.2-.4 0-.8.3-1 .6l-3.6 7.2-1-2.1 3-6.7c.7-.9 1.7-1.5 2.9-1.5h3.3V74h2.3v-9.3h3.2c1.3 0 2.4.7 3.1 1.8l2.9 6.4-1 2zm18.7 17.8h-2.3V81h-2.3v11.7h-2.3v-14h7v14zm4.7-16.4h-2.3v-8.2h-2.3v8.2h-7v-8.2c0-.6-.5-1.2-1.2-1.2-.4 0-.8.2-1 .5l-5.5 8.8h-2l5.7-10.1c.6-.9 1.6-1.5 2.7-1.6h3.6V74h2.3v-9.3h3.5c1.9 0 3.5 1.6 3.5 3.5v8.1zM60.5 25c-19.3 0-35 15.7-35 35v1.2h2.3V60c0-4.8 1.1-9.6 3.2-14h10.7c-.4 1.5-.7 3-.9 4.5l2.3.4c.3-1.6.6-3.3 1-4.8h15.2v2.3h2.3V46H77c.4 1.6.8 3.2 1 4.8l2.3-.4c-.2-1.5-.6-3-.9-4.5H90c2.1 4.4 3.2 9.2 3.2 14v1.2h2.3V60c0-19.3-15.7-35-35-35zm-11.1 4.3c-.9 1.3-1.7 2.6-2.5 3.9h-5c2.3-1.7 4.9-3 7.5-3.9zm-7.1 14.4H32.2c1.8-3.1 4-5.8 6.7-8.2h6.7c-1.3 2.6-2.4 5.4-3.3 8.2zm17 0H44.8c.9-2.8 2.1-5.6 3.5-8.2h11.1v8.2zm0-10.5h-9.7c.9-1.5 1.9-2.9 3-4.3l.6-.7c2-.5 4.1-.7 6.2-.8v5.8zm19.8 0h-4.9c-.8-1.3-1.6-2.6-2.5-3.9 2.6 1 5.1 2.3 7.4 3.9zm-17.4-5.8c2.1.1 4.2.4 6.2.8l.5.7c1.1 1.4 2.1 2.8 3 4.3h-9.8v-5.8zm0 16.3v-8.2h11.1c1.4 2.6 2.6 5.3 3.5 8.2H61.7zm17 0c-.9-2.8-2-5.5-3.3-8.2H82c2.7 2.3 4.9 5.1 6.7 8.2h-10zM46.5 56.5h-2.3v2.3h2.3v-2.3zm4.7 0h-2.3v2.3h2.3v-2.3zm21 0h-2.3v2.3h2.3v-2.3zm4.6 0h-2.3v2.3h2.3v-2.3z" fill-rule="evenodd" clip-rule="evenodd" fill="#01838f"/><path d="M60.5 6c29.8 0 54 24.2 54 54s-24.2 54-54 54-54-24.2-54-54 24.2-54 54-54z" clip-rule="evenodd" fill="none" stroke="#01838f" stroke-width="2" stroke-miterlimit="10"/></svg>