<svg xmlns="http://www.w3.org/2000/svg" viewBox="0 0 20 32"><path d="M19.7 29.5l.3-.9c.3-1.8-.5-4.5-5.9-7.5-.2-.1-.4-.1-.6 0l-1.8 1c-.4 0-2.4-.2-4.6-4.4-1.8-4.5-.8-6.2-.5-6.5l1.9-.8c.2-.1.4-.3.4-.5 1.2-6.1-.4-8.5-2-9.4C6.1.2 5.4 0 4.7 0c-1.6-.1-3 .9-3.6 2.4C0 5.2-1.3 11.3 2.6 19.7c4 8.4 9.5 11.2 12.4 12.1.4.1.8.2 1.2.2.9 0 1.8-.4 2.4-1h.1c.1 0 .9-1.4 1-1.5zm-1.1-1.2c-.3 1.2-1.3 2.1-2.5 2.2-.3 0-.5 0-.7-.1-2.7-.8-7.8-3.4-11.5-11.3C.1 11.2 1.4 5.5 2.4 2.9c.4-1 1.3-1.6 2.3-1.5.5 0 .9.1 1.3.3 1.6.9 2.1 3.6 1.4 7.5l-1.6.7c-.1 0-.1.1-.2.1-.2.2-2.3 2.1.1 8.2 2.4 4.8 4.9 5.3 5.8 5.3h.4c.1 0 .1 0 .2-.1l1.6-.8c3.4 1.9 5.2 3.9 4.9 5.7z" fill="#f04d2a"/></svg>