<svg xmlns="http://www.w3.org/2000/svg" viewBox="0 0 100 100"><path d="M75.5 20L70 24.2l-5.6 13.2h-4.5l-1.8-3.9h1.1c2.1 0 3.8-1.7 3.8-3.9v-3.9h2V20h-5.7v5.8h1.9v3.9c0 1.1-.9 1.9-1.9 1.9h-2l-2.4-5.4 2.9-1.5-9.6-4.2-2.2 8c-.1-4.7-3.9-8.6-8.6-8.6-4.7 0-8.6 3.9-8.6 8.7 0 2.9 1.4 5.6 3.8 7.2v1.5h-2.3l-.1.8c-.5 2.4-.5 4.9-.1 7.4l-6.5 11.8 7.2 1.7v12.2h9.5V80h22.9V66.5c6.7-4.8 10.5-12.5 10.5-20.7v-3.5c0-1.3-.1-2.7-.4-4l-.1-.8h-1.9L75.5 27v-7zm-14.3 3.9V22h1.9v1.9h-1.9zm-3.4 13.5h-3.6l-1.7-3.9H56l1.8 3.9zm-8.4-14.1l3.8 1.6-.9.4 2.8 6.2h-3.6l-2.3-5.2-.9.4 1.1-3.4zm2.7 14.1h-4.2v-1.9c0-1.1.9-2 1.9-2h.6l1.7 3.9zm-3.8-8.3l1.2 2.6c-2 .1-3.6 1.8-3.6 3.8v1.9h-3.8V36c1.9-1.3 3.2-3.3 3.6-5.6l2.6-1.3zm-17.6-.4c0-3.7 3-6.8 6.7-6.8s6.7 3 6.7 6.8c0 2.4-1.3 4.7-3.3 5.9l-.5.3v2.6h-1.9v-6c1.1-.4 1.9-1.5 1.9-2.7 0-1.6-1.3-2.9-2.9-2.9-1.6 0-2.9 1.3-2.9 2.9 0 1.3.8 2.3 1.9 2.7v6h-1.9v-2.6l-.5-.3c-2-1.2-3.3-3.5-3.3-5.9zm6.7 1c-.5 0-1-.4-1-1 0-.5.4-1 1-1 .5 0 1 .4 1 1-.1.6-.5 1-1 1zm34.1 9.7c.1 1 .2 1.9.2 2.9v3.5c0 7.8-3.8 15-10.1 19.4l-.4.3v12.6H42.1v-8.7h-9.5V57.5l-6.2-1.4L32 46l-.1-.3c-.4-2.1-.4-4.4-.1-6.3h39.7zm-2.4-2h-2.7l4.8-11.2 2.1 1.1-4.2 10.1zm4.5-12.2l-1.1-.5 1.1-.8v1.3zM39.3 47.1c2.6 0 4.8-1.9 4.8-4.8h-1.9c0 1.9-1.3 2.9-2.9 2.9-1.6 0-2.9-1-2.9-2.9h-1.9c0 2.9 2.1 4.8 4.8 4.8z" fill-rule="evenodd" clip-rule="evenodd" fill="#f04d2a"/><path d="M49.5 3c26 0 47 21 47 47s-21 47-47 47-47-21-47-47 21-47 47-47z" clip-rule="evenodd" fill="none" stroke="#f04d2a" stroke-width="2" stroke-miterlimit="10"/></svg>