<svg xmlns="http://www.w3.org/2000/svg" viewBox="0 0 60 60"><path d="M30 26c3.3 0 6-2.7 6-6s-2.7-6-6-6-6 2.7-6 6 2.7 6 6 6zm0-10c2.2 0 4 1.8 4 4s-1.8 4-4 4-4-1.8-4-4 1.8-4 4-4zM18.4 45.7c.3.4.6.7.9 1 .2.2.4.3.7.3.1 0 .2 0 .3-.1.4-.1.6-.4.7-.8l.8-5.3c.1-.5.5-.9 1-.9h3l-.8 3.9c-.1.5.2 1.1.8 1.2H34c.6 0 1-.4 1-1v-.2l-.8-3.8h3c.5 0 .9.4 1 .9l.8 5.3c.1.4.3.7.7.8.1 0 .2.1.3.1.3 0 .5-.1.7-.3 5-5 5-13.1 0-18.1-.3-.3-.7-.6-1-.9C43 17.5 39.3 6.4 30.6.2c-.3-.2-.8-.2-1.2 0-8.7 6.2-12.4 17.3-9.1 27.5-5.5 4.4-6.4 12.5-1.9 18zm8.8-2.7l.6-3h4.4l.6 3h-5.6zm15.2-6.2c.2 2.4-.4 4.8-1.7 6.8l-.4-3c-.2-1.5-1.5-2.6-3-2.6h-.9l2.6-8.2c2 1.8 3.2 4.3 3.4 7zM30 2.2C32.4 4 34.4 6.3 35.9 9H24.1c1.5-2.6 3.5-4.9 5.9-6.8zM23.1 11h13.8c2.3 5.1 2.6 10.8.9 16.1l-.2.7L34.3 38h-8.5l-3.3-10.2-.2-.7c-1.8-5.3-1.5-11 .8-16.1zM21 29.8l2.6 8.2h-.9c-1.5 0-2.8 1.1-3 2.6l-.4 3c-1.3-2-2-4.4-1.7-6.8.2-2.7 1.4-5.2 3.4-7zm5 20.4c-2.4-.7-5.1-.1-6.9 1.7-1.5-1.8-3.7-2.9-6.1-2.9-.7 0-1.5.1-2.2.3C10 44.5 5.9 41 1 41H0v2h1c4.1 0 7.5 3.1 7.9 7.1-1 .6-1.8 1.3-2.5 2.2C4.7 50.8 2.4 50 0 50v2c4.4 0 8 3.6 8 8h2c0-2.2-.7-4.4-2.1-6.1.6-1 1.5-1.8 2.5-2.3.8-.4 1.7-.6 2.6-.6 1.9 0 3.8 1 4.9 2.5-.6 1.1-.9 2.3-.9 3.5h2c0-1 .3-2 .8-2.9V54c1.4-2 3.9-2.7 6.1-1.8v2.6h2v-8h-2v3.4zm23.2-.9c-.7-.2-1.5-.3-2.2-.3-2.4 0-4.6 1.1-6.1 2.9-1.8-1.8-4.5-2.4-6.9-1.7v-3.3h-2v8h2v-2.6c2.2-1 4.8-.2 6.1 1.8v.1c.6.8.9 1.8.9 2.8h2c0-1.2-.3-2.4-.9-3.5 1.1-1.5 3-2.5 4.9-2.5.9 0 1.8.2 2.6.6 1 .5 1.9 1.3 2.5 2.3-1.4 1.7-2.1 3.9-2.1 6.1h2c0-4.4 3.6-8 8-8v-2c-2.4 0-4.7.8-6.5 2.4-.7-.9-1.5-1.7-2.5-2.2.4-4.1 3.8-7.2 7.9-7.1h1v-2h-1c-4.8-.1-8.9 3.4-9.7 8.2zM25 31h2v-2h-2v2zm4 0h2v-2h-2v2zm4 0h2v-2h-2v2zM11 55h2v-2h-2v2zM2 37H0v2h2v-2zm56 11v-2h-2v2h2zm-8-6h-2v2h2v-2zM37 60h2v-2h-2v2zm21-25v2h2v-2h-2z" fill="#52b848"/></svg>