<svg xmlns="http://www.w3.org/2000/svg" viewBox="0 0 60 60"><path d="M6.5 49.5h.2c.4 0 .8-.3.9-.7 0-.1 1.1-5.4 4.8-10.3.6.6 1.5.9 2.4.9.9 0 1.7-.3 2.3-.8.4.8.6 1.5.9 2.1.6 1.6 1.1 3.2 3.1 4.9v.3c0 2 1.6 3.6 3.6 3.6s3.6-1.6 3.6-3.6c0-.4-.1-.7-.2-1.1 1.5-2.4 1.9-5.9 2.2-9.3.3-3 .6-6.1 1.7-8.1.6.6 1.5 1 2.5 1s1.9-.4 2.5-1.1c.8 1.2 1 2.7 1.3 4.1.3 1.8.6 3.6 1.8 5.3-.1.3-.1.6-.1.8 0 2 1.6 3.6 3.6 3.6s3.6-1.6 3.6-3.6c0-.4-.1-.7-.2-1.1 1.4-2 1.7-5.1 2.1-8.1.6-4.9 1.1-7.9 3.9-7.9.5 0 .9-.4.9-.9s-.4-.9-.9-.9c-2.1 0-3.5 1.1-4.4 3.2-.7 1.7-1 3.9-1.2 6.2-.3 2.4-.6 4.9-1.4 6.6-.6-.5-1.4-.9-2.3-.9-1 0-1.9.4-2.5 1-.7-1.2-.9-2.5-1.1-3.9-.3-1.9-.6-3.8-2.1-5.5.1-.3.1-.5.1-.8 0-2-1.6-3.6-3.6-3.6S30.8 23 30.8 25c0 .3 0 .6.1.8-1.8 2.3-2.2 6.1-2.5 9.7-.3 2.8-.6 5.7-1.5 7.8-.6-.5-1.4-.9-2.3-.9-1.2 0-2.2.6-2.9 1.5-1.3-1.3-1.7-2.4-2.2-3.8-.3-.9-.7-2-1.4-3.2.1-.4.2-.7.2-1.1 0-2-1.6-3.6-3.6-3.6s-3.6 1.6-3.6 3.6c0 .4.1.8.2 1.1C7 42.4 5.8 48.2 5.8 48.5c-.1.5.2.9.7 1zm37-13.6c1 0 1.8.8 1.8 1.8s-.8 1.8-1.8 1.8-1.8-.8-1.8-1.8c-.1-.9.8-1.8 1.8-1.8zm-9.1-12.7c1 0 1.8.8 1.8 1.8s-.8 1.8-1.8 1.8-1.8-.8-1.8-1.8c-.1-1 .8-1.8 1.8-1.8zm-9.9 21c1 0 1.8.8 1.8 1.8s-.8 1.8-1.8 1.8-1.8-.8-1.8-1.8.8-1.8 1.8-1.8zM14.7 34c1 0 1.8.8 1.8 1.8s-.8 1.8-1.8 1.8c-.6 0-1.2-.3-1.5-.8 0-.1-.1-.2-.2-.3-.1-.2-.1-.4-.1-.7 0-1 .8-1.8 1.8-1.8zm44.4 9.7c-.5 0-.9.4-.9.9v6.8c0 .5-.4.9-.9.9H2.6c-.5 0-.9-.4-.9-.9V26.3c0-.5-.4-.9-.9-.9s-.9.4-.9.9v25.1C0 52.8 1.2 54 2.6 54h54.7c1.5 0 2.6-1.2 2.6-2.6v-6.8c.1-.5-.3-.9-.8-.9zM4.7 11.2c0 .8.7 1.5 1.5 1.5s1.5-.7 1.5-1.5S7 9.7 6.2 9.7s-1.5.7-1.5 1.5zm4.4 0c0 .8.7 1.5 1.5 1.5s1.5-.7 1.5-1.5-.7-1.5-1.5-1.5-1.5.7-1.5 1.5zm4.5 0c0 .8.7 1.5 1.5 1.5s1.5-.7 1.5-1.5-.7-1.5-1.5-1.5c-.9 0-1.5.7-1.5 1.5zM57.4 6H2.6C1.2 6 0 7.2 0 8.6v14.1c0 .5.4.9.9.9s.9-.4.9-.9v-6.2h39.3c.5 0 .9-.4.9-.9s-.4-.9-.9-.9H1.8V8.6c0-.5.4-.9.9-.9h54.7c.5 0 .9.4.9.9v6.1H44.6c-.5 0-.9.4-.9.9s.4.9.9.9h13.6V41c0 .5.4.9.9.9s.9-.4.9-.9V8.6C60 7.2 58.8 6 57.4 6z" fill="#2962ff"/></svg>