<svg xmlns="http://www.w3.org/2000/svg" viewBox="0 0 60 60"><path d="M56.1 9.9V3.1l2.3 1.7 1.2-1.5L55.2 0l-4.4 3.3L52 4.8l2.3-1.7v6.7c0 2.7-2.2 4.8-4.8 4.8h-3.9c-3 0-5.6 1.9-6.5 4.8h-1.4v1.9h1.1v3c-.5-.1-1-.1-1.4-.1-2.2 0-4.4.7-6.2 2.1-1.3-1.3-3-2.1-4.9-2.1-.7 0-1.3.1-1.9.3v-6.1c0-3.2-2.6-5.8-5.8-5.8h-1v-1.9h-1.9v1.9h-2.9c-3.2 0-5.8 2.6-5.8 5.8v1.9c0 1.1-.9 1.9-1.9 1.9h-2l1.7-2.3-1.5-1.2L0 23.4l3.3 4.4 1.5-1.2-1.7-2.3H5c2.1 0 3.9-1.7 3.9-3.9v-1.9c0-2.1 1.7-3.9 3.9-3.9h5.8c2.1 0 3.9 1.7 3.9 3.9v7c-.4.3-.8.6-1.2 1-.7-.2-1.5-.3-2.2-.3-4.1 0-7.6 3.1-8.1 7.1-3.4 1-5.9 4.2-5.9 7.9 0 1.7.5 3.4 1.5 4.8-.4.9-.6 1.9-.6 3 0 4.5 3.7 8.2 8.2 8.2.4 0 .7 0 1.1-.1h.2c.4-.1.7-.1 1-.2 1.3.9 2.8 1.3 4.4 1.3 1.8 0 3.4-.6 4.8-1.6 1.5 2.2 4 3.5 6.7 3.5 2.5 0 4.9-1.1 6.4-3.1 1.3.8 2.7 1.2 4.2 1.2 4.5 0 8.2-3.7 8.2-8.2 0-1-.2-1.9-.5-2.8 1.6-1.5 2.4-3.6 2.4-5.8 0-.5 0-1-.1-1.4h.1v-1.9h-.7c-1-2.1-2.8-3.8-5.1-4.5-.4-4-3.1-7.2-6.7-8.4v-3.5c0-2.7 2.2-4.8 4.8-4.8h3.9c3.8-.3 6.8-3.3 6.8-7zM45.5 34.2v.8l.7.1c1.7.3 3.2 1.4 4.1 2.8v1.9h.8c.1.5.2.9.2 1.4 0 1.5-.6 3-1.6 4.1-1.4-1.9-3.6-3.1-6.1-3.2l-.1 1.8c3.2.2 5.7 2.5 5.8 6.2-.1 3.4-2.9 6-6.3 6-1.4 0-2.7-.5-3.8-1.3l-.4-.3c-1.2-1.1-1.9-2.6-2-4.2l-1.8.1c.1 2 1 3.9 2.5 5.3-1.2 1.5-3 2.3-4.9 2.3-2.4 0-4.5-1.3-5.6-3.5l-.6-1.2-.9.9c-1.2 1.2-2.7 1.8-4.4 1.8-.8 0-1.5-.2-2.2-.4 2.2-1.5 3.6-4 3.6-6.8v-.6c1.5-.3 3-1 4.1-2l-1.3-1.4c-.9.8-2 1.4-3.2 1.6-.6-2-2-3.7-4-4.8l-.9 1.7c2.1 1.1 3.4 3.2 3.4 5.5 0 2.7-1.7 5-4.1 5.9-.3.1-.7.2-1 .3h-.1c-.3.1-.7.1-1 .1-3.5 0-6.3-2.8-6.3-6.3 0-.9.2-1.8.6-2.7l.3-.6-.4-.5c-.9-1.1-1.4-2.5-1.4-4 0-3 2.1-5.6 5-6.1l.7-.1V34c.1-2.1 1.2-3.9 2.9-5v1.9h1.9v-2.7c.5-.1.9-.2 1.4-.2.7 0 1.5.1 2.2.4l.7.3.4-.6V28v5h1.9v-6.3c.6-.3 1.3-.4 1.9-.4 1.3 0 2.6.6 3.5 1.5-1.6 1.8-2.7 4.2-2.7 6.7 0 5.6 5.1 10.1 9.9 10.1v-1.9c-3.9 0-8-3.7-8-8.2 0-2 .9-4 2.2-5.4l.6-.5c1.5-1.5 3.6-2.3 5.7-2.3.5 0 1 0 1.5.1v3.7c0 2.7-2.2 4.8-4.8 4.8h-1v1.9h1c3.7 0 6.7-3 6.7-6.7V27c2.7 1.2 4.6 3.9 4.7 7.2zm2 3.6h-2.9v1.9h2.9v-1.9zm1.9-16.4h2.9v-1.9h-2.9v1.9zm-15-.9l1-1.7c-.7-.4-1.3-1-1.7-1.7l-1.6 1c.6 1.1 1.4 1.9 2.3 2.4zm-3.3-5.8v.3l1.9-.2v-3h-1.9v2.9zM33 6h-1.9v2.9H33V6zm22.6 31.2l.9 1.7c1-.5 1.8-1.3 2.4-2.3l-1.6-1c-.4.7-1 1.3-1.7 1.6zm2.5-4.2v.3l1.9.1V30h-1.9v3zM43.6 21.4h2.9v-1.9h-2.9v1.9zm16.2 3.1l-1.9.5c.1.4.2.8.2 1.3v1H60v-1c0-.6-.1-1.2-.2-1.8zm-1.7-2.9c-.8-.8-1.8-1.4-2.8-1.8l-.6 1.8c.8.2 1.5.7 2 1.3l1.4-1.3zm-27-18.5H33l2.3 1.7 1.2-1.5L32 0l-4.4 3.3 1.2 1.5 2.3-1.7zM15.7 8h1.9V5.1h-1.9V8zm0 17.3h1.9v-2.9h-1.9v2.9zm1.9-8.7h-1.9v2.9h1.9v-2.9zm-1.9 20.3h1.9V34h-1.9v2.9zm.9-34.5l3.3 2.5 1.2-1.5L16.6 0l-4.4 3.3 1.2 1.5 3.2-2.4z" fill="#ef4323"/></svg>